<?xml version="1.0" encoding="utf-8"?>
<!-- Generator: Adobe Illustrator 24.0.3, SVG Export Plug-In . SVG Version: 6.00 Build 0)  -->
<svg version="1.1" id="Layer_1" xmlns="http://www.w3.org/2000/svg" xmlns:xlink="http://www.w3.org/1999/xlink" x="0px" y="0px"
	 viewBox="0 0 200 50" style="enable-background:new 0 0 200 50;" xml:space="preserve">
<style type="text/css">
	.st0{fill:url(#SVGID_1_);}
	.st1{fill:#B1B2B4;}
	.st2{fill:#00A1B0;}
</style>
<linearGradient id="SVGID_1_" gradientUnits="userSpaceOnUse" x1="33.3375" y1="19.8215" x2="59.9687" y2="19.8215">
	<stop  offset="0" style="stop-color:#00A1B0"/>
	<stop  offset="1" style="stop-color:#11C2B7"/>
</linearGradient>
<path class="st0" d="M39.3,25c0-4,3.3-7.3,7.3-7.3c4,0,7.3,3.3,7.3,7.3c0,4-3.3,7.3-7.3,7.3C42.6,32.3,39.3,29,39.3,25 M33.3,13.9
	v24.4h5.3v-2.6c2.2,1.6,4.9,2.6,7.8,2.6c0,0,0.1,0,0.1,0c0,0,0.1,0,0.1,0C54,38.3,60,32.4,60,25c0-7.4-6-13.3-13.3-13.3
	c-3,0-5.8,1-8,2.7v-0.8c0-4.6,2.6-7.6,7.8-7.7V1.3c0,0,0,0-0.1,0C38,1.3,33.3,6.4,33.3,13.9"/>
<path class="st1" d="M21.4,25c0,4-3.3,7.3-7.3,7.3c-4,0-7.3-3.3-7.3-7.3c0-4,3.3-7.3,7.3-7.3C18.1,17.7,21.4,21,21.4,25 M27.4,36.1
	V11.7h-5.3v2.6c-2.2-1.6-4.9-2.6-7.8-2.6c0,0-0.1,0-0.1,0c0,0-0.1,0-0.1,0c-7.4,0-13.3,6-13.3,13.3c0,7.4,6,13.3,13.3,13.3
	c3,0,5.8-1,8-2.7v0.8c0,4.6-2.6,7.6-7.8,7.7v4.6c0,0,0,0,0.1,0C22.7,48.7,27.4,43.6,27.4,36.1"/>
<path class="st1" d="M97.3,22c0,2.1-1.6,3.5-3.5,3.5c-2,0-3.5-1.4-3.5-3.5c0-2.1,1.6-3.5,3.5-3.5C95.7,18.5,97.3,20,97.3,22
	 M100.4,22c0-3.7-2.9-6.3-6.7-6.3c-3.8,0-6.7,2.7-6.7,6.3c0,3.7,2.9,6.3,6.7,6.3C97.5,28.4,100.4,25.7,100.4,22"/>
<path class="st2" d="M123.6,28.4c3.5,0,5.6-1.8,5.6-4.7v-7.7H126v7.5c0,1.5-1,2.1-2.4,2.1c-1.3,0-2.3-0.7-2.3-2.1v-7.5H118v7.7
	C118,26.6,120.1,28.4,123.6,28.4"/>
<path class="st2" d="M136.2,28.4c2.7,0,4.7-1.3,4.7-3.9c0-2.5-1.9-3.2-3.5-3.8c-1.4-0.4-2.7-0.7-2.7-1.6c0-0.6,0.6-1,1.4-1
	c0.9,0,2.1,0.4,3,1l1.4-2.2c-1.3-0.8-2.8-1.3-4.3-1.3c-2.5,0-4.6,1.2-4.6,3.7c0,2.4,2,3.1,3.6,3.6c1.3,0.4,2.5,0.7,2.5,1.7
	c0,0.7-0.6,1.2-1.6,1.2c-1.2,0-2.7-0.6-3.7-1.4l-1.4,2.4C132.4,27.7,134.2,28.4,136.2,28.4"/>
<path class="st2" d="M146.5,15.9h-3.3v12.2h3.3V15.9z M146.8,12.1c0-1-0.9-1.9-1.9-1.9c-1,0-1.9,0.8-1.9,1.9c0,1,0.9,1.9,1.9,1.9
	C145.9,14,146.8,13.1,146.8,12.1"/>
<path class="st2" d="M156.6,15.7c-1.6,0-2.9,0.8-3.7,1.9v-1.7h-3.3v12.2h3.3v-6.9c0-1.9,1-2.7,2.4-2.7c1.3,0,2.2,0.6,2.2,2.5v7.2
	h3.3v-7.8C160.9,17.3,159.2,15.7,156.6,15.7"/>
<path class="st2" d="M172.4,20.5h-6.1c0.4-1.5,1.6-2.4,3.2-2.4C171,18.1,172.2,19,172.4,20.5 M175.7,21.9c-0.1-3.8-2.8-6.2-6.3-6.2
	c-3.8,0-6.5,2.8-6.5,6.4c0,3.5,2.7,6.3,6.6,6.3c2.6,0,4.6-1.2,5.6-3.2l-2.6-1.1c-0.6,1.1-1.8,1.7-3,1.7c-1.8,0-3.2-1.2-3.4-3.2h9.5
	L175.7,21.9z"/>
<path class="st2" d="M181.8,28.4c2.7,0,4.7-1.3,4.7-3.9c0-2.5-1.9-3.2-3.5-3.8c-1.4-0.4-2.7-0.7-2.7-1.6c0-0.6,0.6-1,1.4-1
	c0.9,0,2.1,0.4,3,1l1.4-2.2c-1.3-0.8-2.8-1.3-4.3-1.3c-2.5,0-4.6,1.2-4.6,3.7c0,2.4,2,3.1,3.6,3.6c1.3,0.4,2.5,0.7,2.5,1.7
	c0,0.7-0.6,1.2-1.6,1.2c-1.2,0-2.7-0.6-3.7-1.4l-1.4,2.4C178,27.7,179.9,28.4,181.8,28.4"/>
<path class="st2" d="M192.8,28.4c2.7,0,4.7-1.3,4.7-3.9c0-2.5-1.9-3.2-3.5-3.8c-1.4-0.4-2.7-0.7-2.7-1.6c0-0.6,0.6-1,1.4-1
	c0.9,0,2.1,0.4,3,1l1.4-2.2c-1.3-0.8-2.8-1.3-4.3-1.3c-2.5,0-4.6,1.2-4.6,3.7c0,2.4,2,3.1,3.6,3.6c1.3,0.4,2.5,0.7,2.5,1.7
	c0,0.7-0.6,1.2-1.6,1.2c-1.2,0-2.7-0.6-3.7-1.4l-1.4,2.4C189,27.7,190.9,28.4,192.8,28.4"/>
<path class="st1" d="M81.6,22.3c0,1.9-1.6,3.5-3.5,3.5c-1.9,0-3.5-1.6-3.5-3.5c0-1.9,1.6-3.5,3.5-3.5C80.1,18.8,81.6,20.3,81.6,22.3
	 M84.5,27.5V15.9h-2.5v1.2c-1-0.8-2.3-1.2-3.7-1.2c0,0,0,0-0.1,0c0,0,0,0-0.1,0c-3.5,0-6.3,2.8-6.3,6.3c0,3.5,2.8,6.3,6.3,6.3
	c1.4,0,2.7-0.5,3.8-1.3v0.4c0,2.2-1.2,3.6-3.7,3.6v2.2c0,0,0,0,0,0C82.2,33.5,84.5,31.1,84.5,27.5"/>
<path class="st2" d="M105.7,21.5c0-2,1.6-3.6,3.6-3.6c2,0,3.6,1.6,3.6,3.6c0,2-1.6,3.6-3.6,3.6C107.3,25.2,105.7,23.5,105.7,21.5
	 M102.7,16v12.1h2.6v-1.3c1.1,0.8,2.4,1.3,3.9,1.3c0,0,0,0,0.1,0c0,0,0,0,0.1,0c3.7,0,6.6-3,6.6-6.6c0-3.7-3-6.6-6.6-6.6
	c-1.5,0-2.9,0.5-4,1.3v-0.4c0-2.3,1.3-3.8,3.9-3.8V9.7c0,0,0,0,0,0C105,9.7,102.7,12.3,102.7,16"/>
<g>
	<path class="st1" d="M111,37.9v1.3h2.4c-0.3,1.4-1.5,2.3-3,2.3c-1.9,0-3.2-1.4-3.2-3.1c0-1.8,1.4-3.2,3.2-3.2c1.1,0,2,0.5,2.6,1.3
		l1.3-0.7c-0.8-1.2-2.2-2-3.9-2c-2.6,0-4.6,2-4.6,4.6s2,4.6,4.6,4.6c2.6,0,4.7-2,4.7-4.6c0-0.2,0-0.3,0-0.4H111z"/>
	<path class="st1" d="M121.9,33.8c-2.6,0-4.6,2-4.6,4.6s2,4.6,4.6,4.6c2.6,0,4.7-2,4.7-4.6S124.5,33.8,121.9,33.8z M121.9,41.5
		c-1.8,0-3.2-1.4-3.2-3.2s1.4-3.2,3.2-3.2c1.8,0,3.2,1.4,3.2,3.2S123.7,41.5,121.9,41.5z"/>
	<polygon class="st1" points="132.3,40.9 129.7,33.9 128.1,33.9 131.6,42.8 133,42.8 136.5,33.9 134.9,33.9 	"/>
	<polygon class="st1" points="138.6,35.2 140.9,35.2 140.9,42.8 142.4,42.8 142.4,35.2 144.7,35.2 144.7,33.9 138.6,33.9 	"/>
	<path class="st1" d="M154.6,33.9l-3.5,8.9h1.5l0.7-1.9h4.1l0.7,1.9h1.5l-3.5-8.9H154.6z M153.9,39.6l1.6-4.2l1.6,4.2H153.9z"/>
	<path class="st1" d="M165.4,37.6c-1-0.4-1.9-0.7-1.9-1.6c0-0.7,0.5-1,1.2-1c0.7,0,1.3,0.3,2,0.9l0.8-1c-0.7-0.7-1.7-1.2-2.8-1.2
		c-1.5,0-2.6,0.9-2.6,2.4c0,1.5,1.2,2.1,2.4,2.6c1,0.4,1.8,0.8,1.8,1.6c0,0.7-0.6,1.2-1.4,1.2c-0.9,0-1.7-0.5-2.3-1.2l-0.9,1.1
		c0.8,0.8,2,1.4,3.2,1.4c1.5,0,2.9-0.9,2.9-2.5C167.8,38.7,166.6,38.1,165.4,37.6z"/>
	<path class="st1" d="M173.7,37.6c-1-0.4-1.9-0.7-1.9-1.6c0-0.7,0.5-1,1.2-1c0.7,0,1.3,0.3,2,0.9l0.8-1c-0.7-0.7-1.7-1.2-2.8-1.2
		c-1.5,0-2.6,0.9-2.6,2.4c0,1.5,1.2,2.1,2.4,2.6c1,0.4,1.8,0.8,1.8,1.6c0,0.7-0.6,1.2-1.4,1.2c-0.9,0-1.7-0.5-2.3-1.2l-0.9,1.1
		c0.8,0.8,2,1.4,3.2,1.4c1.5,0,2.9-0.9,2.9-2.5C176.1,38.7,174.9,38.1,173.7,37.6z"/>
	<rect x="179" y="33.9" class="st1" width="1.5" height="8.9"/>
	<path class="st1" d="M187,37.6c-1-0.4-1.9-0.7-1.9-1.6c0-0.7,0.5-1,1.2-1c0.7,0,1.3,0.3,2,0.9l0.8-1c-0.7-0.7-1.7-1.2-2.8-1.2
		c-1.5,0-2.6,0.9-2.6,2.4c0,1.5,1.2,2.1,2.4,2.6c1,0.4,1.8,0.8,1.8,1.6c0,0.7-0.6,1.2-1.4,1.2c-0.9,0-1.7-0.5-2.3-1.2l-0.9,1.1
		c0.8,0.8,2,1.4,3.2,1.4c1.5,0,2.9-0.9,2.9-2.5C189.4,38.7,188.1,38.1,187,37.6z"/>
	<polygon class="st1" points="191.5,33.9 191.5,35.2 193.8,35.2 193.8,42.8 195.3,42.8 195.3,35.2 197.7,35.2 197.7,33.9 	"/>
</g>
</svg>
