<?xml version="1.0" encoding="utf-8"?>
<!-- Generator: Adobe Illustrator 24.0.1, SVG Export Plug-In . SVG Version: 6.00 Build 0)  -->
<svg version="1.1" id="Layer_1" xmlns="http://www.w3.org/2000/svg" xmlns:xlink="http://www.w3.org/1999/xlink" x="0px" y="0px"
	 viewBox="0 0 200 50" enable-background="new 0 0 200 50" xml:space="preserve">
<title>GoBizlogo_web_200x50px</title>
<path fill="#B9B9B9" d="M73.1,30.5l2.1-1.9c0.8,1.3,2.3,2.1,3.9,2.1c1.7,0.2,3.2-1,3.4-2.7c0-0.2,0-0.5,0-0.7v-1.5
	c-0.9,1.2-2.3,1.8-3.8,1.8c-3.2,0-5.8-2.6-5.8-5.8c0-0.1,0-0.2,0-0.3c-0.1-3.2,2.3-5.9,5.5-6c0.1,0,0.2,0,0.3,0
	c1.5-0.1,2.9,0.6,3.8,1.8v-1.6h3.2V27c0,4-2.4,6.3-6.6,6.3C76.8,33.4,74.6,32.4,73.1,30.5z M82.7,21.4c0-1.8-1.5-3.3-3.3-3.3
	s-3.3,1.5-3.3,3.3s1.5,3.3,3.3,3.3S82.7,23.3,82.7,21.4L82.7,21.4z"/>
<path fill="#B9B9B9" d="M88,21.6c-0.2-3.6,2.6-6.7,6.3-6.9c3.6-0.2,6.7,2.6,6.9,6.3s-2.6,6.7-6.3,6.9c-0.1,0-0.2,0-0.3,0
	c-3.4,0.2-6.4-2.5-6.6-5.9C88,21.9,88,21.8,88,21.6z M98.1,21.6c0-1.9-1.6-3.5-3.5-3.5s-3.5,1.6-3.5,3.5s1.6,3.5,3.5,3.5
	S98.1,23.6,98.1,21.6z"/>
<path fill="#05BACC" d="M106.6,26.1v1.5h-3.3V10.2h3.2v7c1-1.2,2.5-1.9,4-1.8c3.3,0.1,5.9,2.8,5.8,6.2c0,0,0,0.1,0,0.1
	c0.2,3.3-2.4,6.1-5.7,6.3c0,0-0.1,0-0.1,0C109.1,28,107.6,27.3,106.6,26.1z M113.2,21.6c0-1.9-1.6-3.5-3.5-3.5s-3.5,1.6-3.5,3.5
	s1.6,3.5,3.5,3.5S113.2,23.5,113.2,21.6L113.2,21.6z"/>
<path fill="#05BACC" d="M118.5,23.2v-7.6h3.2V23c-0.1,1.1,0.8,2.1,1.9,2.1c0.1,0,0.3,0,0.4,0c1.3,0,2.3-0.7,2.3-2.1v-7.4h3.2v7.6
	c0,2.9-2.1,4.7-5.6,4.7S118.5,26.1,118.5,23.2z"/>
<path fill="#05BACC" d="M131.4,26.3l1.4-2.4c1,0.8,2.3,1.3,3.6,1.4c0.9,0,1.6-0.4,1.6-1.1c0-0.9-1.1-1.2-2.4-1.6
	c-1.6-0.5-3.6-1.2-3.6-3.6s2.1-3.7,4.5-3.7c1.5,0,3,0.4,4.3,1.3l-1.4,2.1c-0.9-0.6-1.9-0.9-3-1c-0.8,0-1.4,0.3-1.4,1
	c0,0.9,1.2,1.1,2.6,1.5c1.6,0.5,3.5,1.3,3.5,3.7s-2,3.9-4.7,3.9C134.6,27.9,132.9,27.3,131.4,26.3z"/>
<path fill="#05BACC" d="M143.1,11.8c0-1,0.8-1.9,1.9-1.9c1,0,1.9,0.8,1.9,1.9s-0.8,1.9-1.9,1.9c0,0,0,0,0,0
	C144,13.7,143.1,12.9,143.1,11.8C143.1,11.8,143.1,11.8,143.1,11.8z M143.4,15.6h3.2v12h-3.2V15.6z"/>
<path fill="#05BACC" d="M160.8,20v7.6h-3.3v-7c0-1.9-0.9-2.5-2.1-2.5S153,19,153,20.8v6.9h-3.3v-12h3.3v1.7c0.8-1.2,2.2-1.9,3.6-1.9
	C159.2,15.4,160.8,17,160.8,20z"/>
<path fill="#05BACC" d="M175.4,22.1H166c0,1.8,1.5,3.2,3.3,3.2c0,0,0,0,0,0c1.2,0,2.4-0.6,3-1.7l2.6,1.1c-1.1,2.1-3.2,3.3-5.5,3.2
	c-3.5,0-6.3-2.7-6.3-6.2c0-3.5,2.7-6.3,6.2-6.3c3.3-0.1,6.1,2.5,6.2,5.8c0,0.1,0,0.2,0,0.3L175.4,22.1z M166.1,20.1h6.1
	c-0.2-1.4-1.5-2.5-2.9-2.4C167.8,17.7,166.4,18.7,166.1,20.1L166.1,20.1z"/>
<path fill="#05BACC" d="M176.4,26.3l1.4-2.4c1,0.8,2.3,1.3,3.6,1.4c0.9,0,1.6-0.4,1.6-1.1c0-0.9-1.1-1.2-2.4-1.6
	c-1.6-0.5-3.6-1.2-3.6-3.6s2.1-3.7,4.5-3.7c1.5,0,3,0.4,4.3,1.3l-1.4,2.1c-0.9-0.6-1.9-0.9-3-1c-0.8,0-1.4,0.3-1.4,1
	c0,0.9,1.2,1.1,2.6,1.5c1.6,0.5,3.5,1.3,3.5,3.7s-2,3.9-4.7,3.9C179.6,27.9,177.9,27.3,176.4,26.3z"/>
<path fill="#05BACC" d="M187.3,26.3l1.4-2.4c1,0.8,2.3,1.3,3.6,1.4c0.9,0,1.6-0.4,1.6-1.1c0-0.9-1.1-1.2-2.4-1.6
	c-1.6-0.5-3.6-1.2-3.6-3.6s2.1-3.7,4.5-3.7c1.5,0,3,0.4,4.3,1.3l-1.4,2.1c-0.9-0.6-1.9-0.9-3-1c-0.8,0-1.4,0.3-1.4,1
	c0,0.9,1.2,1.1,2.6,1.5c1.6,0.5,3.5,1.3,3.5,3.7s-2,3.9-4.7,3.9C190.5,27.9,188.8,27.4,187.3,26.3z"/>
<path fill="#B9B9B9" d="M23.6,12.9v3.5c-2-2.6-5.1-4.1-8.3-3.9C8.6,12.4,3.1,17.8,3,24.5c0,0.2,0,0.3,0,0.5
	c-0.2,6.8,5.2,12.4,12,12.5c0.1,0,0.2,0,0.4,0c3.2,0.1,6.3-1.3,8.3-3.9v3.8c0,4.6-2.6,7.6-7.7,7.6H15v4.5h1c8.2,0,12.9-5,12.9-12.4
	V12.9H23.6z M16,32.8c-4.3,0-7.8-3.4-7.8-7.7c0,0,0-0.1,0-0.1c-0.2-4.3,3.2-8,7.6-8.1s8,3.2,8.1,7.6c0,0.2,0,0.4,0,0.6
	c0,4.3-3.4,7.8-7.7,7.9C16.1,32.9,16.1,32.9,16,32.8z"/>
<linearGradient id="SVGID_1_" gradientUnits="userSpaceOnUse" x1="33.234" y1="45.1214" x2="51.372" y2="13.7049" gradientTransform="matrix(1 0 0 -1 0 50.9291)">
	<stop  offset="0" style="stop-color:#02A6CC"/>
	<stop  offset="1" style="stop-color:#11C2B7"/>
</linearGradient>
<path fill="url(#SVGID_1_)" d="M39.1,37.1v-3.5c2,2.6,5.1,4.1,8.3,3.9c6.7,0.1,12.2-5.3,12.3-12c0-0.2,0-0.3,0-0.5
	c0.2-6.8-5.1-12.4-11.9-12.6c-0.1,0-0.3,0-0.4,0c-3.2-0.1-6.3,1.3-8.3,3.9v-3.8C39.1,8,41.7,5,46.8,5h0.8V0.5h-1
	c-8.2,0-12.9,5-12.9,12.4v24.1H39.1z M46.7,17.1c4.3,0,7.8,3.4,7.8,7.7c0,0.1,0,0.1,0,0.2c0.2,4.3-3.2,8-7.6,8.1
	c-4.3,0.2-8-3.2-8.1-7.6c0-0.2,0-0.4,0-0.6c-0.1-4.3,3.4-7.8,7.7-7.9C46.6,17.1,46.6,17.1,46.7,17.1z"/>
<g>
	<g>
		<g>
			<g>
				<g>
					<path fill="#B9B9B9" d="M129.3,39.4l0.6-0.7c0.4,0.5,1,0.9,1.7,0.9c0.6,0,1.1-0.4,1.1-0.9c0-0.7-0.6-0.9-1.4-1.3
						c-0.9-0.4-1.8-0.8-1.8-1.9c0-1.1,0.9-1.8,1.9-1.8c0.8,0,1.5,0.4,2,0.9l-0.6,0.7c-0.5-0.5-1-0.7-1.5-0.7c-0.5,0-0.9,0.3-0.9,0.8
						c0,0.6,0.6,0.9,1.4,1.2c0.9,0.4,1.8,0.8,1.8,2c0,1.2-1,1.9-2.1,1.9C130.7,40.4,129.8,40,129.3,39.4z"/>
					<path fill="#B9B9B9" d="M136.7,33.8h1v6.6h-1V33.8z"/>
					<path fill="#B9B9B9" d="M147.2,33.8v6.6h-0.9l-4.1-5v5h-1v-6.6h0.9l4.1,5v-5H147.2z"/>
					<path fill="#B9B9B9" d="M157.1,37.1c0,1.9-1.5,3.4-3.4,3.4c-1.9,0-3.4-1.5-3.4-3.4c0-1.9,1.5-3.4,3.4-3.4
						c1.2,0,2.3,0.6,2.9,1.5l-0.9,0.5c-0.4-0.6-1.2-1-2-1c-1.3,0-2.4,1.1-2.4,2.4c0,1.3,1,2.4,2.4,2.4c1.2,0,2.1-0.7,2.3-1.8h-1.8
						v-0.9h2.8C157.1,36.9,157.1,37,157.1,37.1z"/>
					<path fill="#B9B9B9" d="M163.8,38.9h-3.1l-0.5,1.4h-1.1l2.6-6.6h1.1l2.6,6.6h-1L163.8,38.9z M163.5,38l-1.2-3.2L161,38H163.5z"
						/>
					<path fill="#B9B9B9" d="M172.9,35.8c0,1.2-0.8,2-2.1,2h-1.7v2.5h-1v-6.6h2.7C172.1,33.8,172.9,34.7,172.9,35.8z M172,35.8
						c0-0.7-0.5-1.2-1.2-1.2h-1.5V37h1.5C171.5,37,172,36.5,172,35.8z"/>
					<path fill="#B9B9B9" d="M175.5,37.1c0-1.9,1.5-3.4,3.4-3.4c1.9,0,3.4,1.5,3.4,3.4c0,1.9-1.5,3.4-3.4,3.4
						C177,40.4,175.5,39,175.5,37.1z M181.4,37.1c0-1.4-1.1-2.4-2.4-2.4s-2.4,1.1-2.4,2.4c0,1.4,1.1,2.4,2.4,2.4
						S181.4,38.4,181.4,37.1z"/>
					<path fill="#B9B9B9" d="M187.7,37.5h-1.3v2.9h-1v-6.6h2.5c1.2,0,2,0.9,2,1.9c0,0.8-0.5,1.5-1.2,1.7l1.7,3h-1.1L187.7,37.5z
						 M186.4,36.6h1.4c0.6,0,1.1-0.4,1.1-1c0-0.6-0.4-1-1.1-1h-1.4V36.6z"/>
					<path fill="#B9B9B9" d="M194.2,34.7v1.9h2.4v0.9h-2.4v1.9h2.8v0.9h-3.8v-6.6h3.8v0.9H194.2z"/>
				</g>
			</g>
		</g>
	</g>
</g>
</svg>
