<?xml version="1.0" encoding="utf-8"?>
<!-- Generator: Adobe Illustrator 23.0.6, SVG Export Plug-In . SVG Version: 6.00 Build 0)  -->
<svg version="1.1" id="Layer_1" xmlns="http://www.w3.org/2000/svg" xmlns:xlink="http://www.w3.org/1999/xlink" x="0px" y="0px"
	 width="200px" height="50px" viewBox="0 0 200 50" style="enable-background:new 0 0 200 50;" xml:space="preserve">
<style type="text/css">
	.st0{fill:url(#SVGID_1_);}
	.st1{fill:#B2B2B2;}
	.st2{fill:#7C4CAB;}
</style>
<title>GoBizlogo_web_200x50px</title>
<linearGradient id="SVGID_1_" gradientUnits="userSpaceOnUse" x1="33.7642" y1="44.1232" x2="51.7082" y2="13.0396" gradientTransform="matrix(1 0 0 -1 0 51)">
	<stop  offset="0" style="stop-color:#7C4CAB"/>
	<stop  offset="0.22" style="stop-color:#854DA9"/>
	<stop  offset="0.57" style="stop-color:#9D50A3"/>
	<stop  offset="1" style="stop-color:#C4549A"/>
</linearGradient>
<path class="st0" d="M39.9,25.3c0-4,3.3-7.3,7.3-7.3s7.3,3.3,7.3,7.3s-3.3,7.3-7.3,7.3l0,0C43.2,32.6,39.9,29.3,39.9,25.3
	C39.9,25.3,39.9,25.3,39.9,25.3 M46.9,1.8c-8.3,0-12.9,5-12.9,12.5v24.2h5.3V36c2.2,1.7,4.9,2.5,7.7,2.5h0.1h0.1
	c7.3,0,13.2-5.9,13.2-13.2c0-7.3-5.9-13.2-13.2-13.2c-2.9,0-5.7,0.9-8,2.7V14c0-4.6,2.6-7.6,7.7-7.6L46.9,1.8L46.9,1.8z"/>
<path class="st1" d="M22.1,25.3c0,4-3.3,7.3-7.3,7.3s-7.3-3.3-7.3-7.3c0-4,3.3-7.3,7.3-7.3c0,0,0,0,0,0C18.9,18,22.1,21.3,22.1,25.3
	 M28.1,36.3V12.1h-5.3v2.5c-2.2-1.7-4.9-2.5-7.7-2.5H15h-0.1C7.6,12.1,1.6,18,1.6,25.3s5.9,13.2,13.2,13.2c2.9,0,5.7-0.9,8-2.7v0.8
	c0,4.6-2.6,7.6-7.7,7.6v4.6h0.1C23.4,48.8,28.1,43.8,28.1,36.3"/>
<path class="st1" d="M82,22.1c0,1.8-1.5,3.3-3.3,3.3s-3.3-1.5-3.3-3.3c0-1.8,1.5-3.3,3.3-3.3S82,20.3,82,22.1 M85,27.8V16.3h-3.3
	v1.6c-0.9-1.2-2.3-1.9-3.8-1.8c-3.2,0-5.8,2.5-5.8,6.1s2.6,6.1,5.8,6.1c1.5,0.1,2.9-0.6,3.8-1.8v1.5c0,2.2-1.2,3.4-3.4,3.4
	c-1.6,0-3.1-0.8-3.9-2.1l-2.1,1.9c1.8,2.2,4,2.8,6,2.8C82.6,34.1,85,31.8,85,27.8"/>
<path class="st1" d="M97.4,22.3c0,1.9-1.5,3.5-3.4,3.5c0,0-0.1,0-0.1,0c-1.9,0-3.5-1.6-3.5-3.5s1.6-3.5,3.5-3.5
	c1.9,0,3.5,1.5,3.5,3.4C97.4,22.3,97.4,22.3,97.4,22.3 M100.6,22.3c0-3.6-2.9-6.3-6.6-6.3c-3.7,0-6.6,2.6-6.6,6.3s2.9,6.3,6.6,6.3
	S100.6,26,100.6,22.3"/>
<path class="st2" d="M112.7,22.3c0,1.9-1.6,3.5-3.5,3.5c-1.9,0-3.5-1.6-3.5-3.5s1.6-3.5,3.5-3.5C111.1,18.8,112.7,20.4,112.7,22.3
	 M116,22.3c0-3.6-2.7-6.3-5.9-6.3c-1.5-0.1-3,0.6-4,1.8v-7h-3.3v17.6h3.3v-1.6c1,1.2,2.5,1.9,4,1.8C113.3,28.7,116,26,116,22.3"/>
<path class="st2" d="M123.6,28.6c3.5,0,5.6-1.8,5.6-4.7v-7.6H126v7.4c0,1.5-1,2.1-2.3,2.1c-1.3,0-2.3-0.7-2.3-2.1v-7.4H118v7.6
	C118,26.9,120.1,28.6,123.6,28.6"/>
<path class="st2" d="M136.1,28.6c2.7,0,4.7-1.3,4.7-3.9c0-2.5-1.8-3.2-3.5-3.8c-1.4-0.4-2.6-0.7-2.6-1.5c0-0.7,0.6-1,1.4-1
	c1.1,0.1,2.1,0.4,3,1l1.4-2.1c-1.3-0.8-2.8-1.3-4.3-1.3c-2.4,0-4.6,1.2-4.6,3.7c0,2.4,2,3.1,3.6,3.6c1.3,0.4,2.4,0.7,2.4,1.6
	c0,0.7-0.6,1.1-1.6,1.1c-1.2,0-2.7-0.7-3.7-1.4l-1.4,2.3C132.5,28.1,134.3,28.6,136.1,28.6"/>
<path class="st2" d="M146.3,16.3h-3.2v12.1h3.2V16.3z M146.6,12.5c0-1-0.8-1.9-1.9-1.9c-1,0-1.9,0.8-1.9,1.9c0,1,0.8,1.9,1.9,1.9
	C145.7,14.4,146.6,13.5,146.6,12.5C146.6,12.5,146.6,12.5,146.6,12.5"/>
<path class="st2" d="M156.4,16.1c-1.5,0-2.8,0.7-3.7,1.9v-1.7h-3.3v12.1h3.3v-6.9c0-1.8,1-2.7,2.4-2.7c1.3,0,2.2,0.6,2.2,2.5v7.1
	h3.3v-7.7C160.6,17.7,159,16.1,156.4,16.1"/>
<path class="st2" d="M172,20.9H166c0.3-1.5,1.6-2.5,3.1-2.4C170.6,18.5,171.8,19.4,172,20.9 M175.3,22.2c-0.1-3.7-2.7-6.2-6.2-6.2
	c-3.7,0-6.4,2.8-6.4,6.3s2.6,6.3,6.5,6.3c2.6,0,4.6-1.2,5.6-3.2l-2.6-1.1c-0.6,1.1-1.8,1.7-3,1.7c-1.8,0-3.2-1.2-3.3-3.2h9.4
	L175.3,22.2z"/>
<path class="st2" d="M181.4,28.6c2.7,0,4.7-1.3,4.7-3.9c0-2.5-1.8-3.2-3.5-3.8c-1.4-0.4-2.6-0.7-2.6-1.5c0-0.7,0.6-1,1.4-1
	c1.1,0.1,2.1,0.4,3,1l1.4-2.1c-1.3-0.8-2.8-1.3-4.3-1.3c-2.4,0-4.6,1.2-4.6,3.7c0,2.4,2,3.1,3.6,3.6c1.3,0.4,2.4,0.7,2.4,1.6
	c0,0.7-0.6,1.1-1.6,1.1c-1.2,0-2.7-0.7-3.7-1.4l-1.4,2.3C177.8,28.1,179.6,28.6,181.4,28.6"/>
<path class="st2" d="M192.3,28.6c2.7,0,4.7-1.3,4.7-3.9c0-2.5-1.8-3.2-3.5-3.8c-1.4-0.4-2.6-0.7-2.6-1.5c0-0.7,0.6-1,1.4-1
	c1.1,0.1,2.1,0.4,3,1l1.4-2.1c-1.3-0.8-2.8-1.3-4.3-1.3c-2.4,0-4.6,1.2-4.6,3.7c0,2.4,2,3.1,3.6,3.6c1.3,0.4,2.4,0.7,2.4,1.6
	c0,0.7-0.6,1.1-1.6,1.1c-1.2,0-2.7-0.7-3.7-1.4l-1.4,2.4C188.7,28.1,190.5,28.6,192.3,28.6"/>
<path class="st1" d="M197,38.2h-3.8v1.2h2.4c-0.3,1.5-1.6,2.5-3.1,2.4c-1.7,0.1-3.2-1.3-3.3-3.1c0,0,0-0.1,0-0.1
	c0-1.8,1.5-3.2,3.3-3.2c1,0,2,0.5,2.6,1.4l1.2-0.7c-0.9-1.3-2.3-2-3.8-2c-2.5,0-4.5,2.1-4.5,4.6c0,2.5,2.1,4.5,4.6,4.5
	c2.5,0,4.5-2.1,4.5-4.6C197,38.4,197,38.3,197,38.2 M183.5,34.1v6.7l-5.5-6.7h-1.1v8.8h1.3v-6.7l5.5,6.7h1.1v-8.8H183.5z M172,42.9
	h1.4v-8.8H172V42.9z M166.2,43c1.5,0,2.8-0.9,2.8-2.5c0-1.6-1.2-2.2-2.4-2.7c-1-0.4-1.9-0.7-1.9-1.6c0-0.7,0.6-1.1,1.3-1.1
	c0.8,0,1.5,0.4,2,0.9l0.8-0.9c-0.7-0.7-1.7-1.2-2.7-1.2c-1.4,0-2.6,0.9-2.6,2.4c0,1.5,1.2,2.1,2.4,2.6c1,0.4,1.9,0.8,1.9,1.7
	c0,0.8-0.7,1.2-1.5,1.2c-0.9,0-1.7-0.5-2.3-1.2l-0.9,1C163.9,42.5,165,43,166.2,43 M158.9,34.1v6.7l-5.5-6.7h-1.1v8.8h1.3v-6.7
	l5.5,6.7h1.1v-8.8L158.9,34.1z M149.2,35.3v-1.2h-5.1v8.8h5.1v-1.2h-3.7v-2.6h3.3v-1.2h-3.3v-2.6H149.2z M138.2,43
	c1.2,0,2.4-0.5,3.3-1.4l-1-0.9c-1.2,1.3-3.3,1.3-4.6,0.1c-1.3-1.2-1.3-3.3-0.1-4.6s3.3-1.3,4.6-0.1c0,0,0,0,0.1,0.1l1-0.9
	c-0.9-0.9-2.1-1.3-3.3-1.4c-2.5-0.1-4.6,1.9-4.6,4.4s1.9,4.6,4.4,4.6C138.1,43,138.1,43,138.2,43 M129.3,42.9h1.4v-8.8h-1.4V42.9z
	 M123.5,41.7v-7.6h-1.4v8.8h4.5v-1.2H123.5z"/>
</svg>
