<?xml version="1.0" encoding="utf-8"?>
<!-- Generator: Adobe Illustrator 24.0.1, SVG Export Plug-In . SVG Version: 6.00 Build 0)  -->
<svg version="1.1" id="Layer_1" xmlns="http://www.w3.org/2000/svg" xmlns:xlink="http://www.w3.org/1999/xlink" x="0px" y="0px"
	 width="200px" height="50px" viewBox="0 0 200 50" enable-background="new 0 0 200 50" xml:space="preserve">
<style type="text/css">
	 	.st0{fill:url(#SVGID_1_);}
	 	.st1{fill:#B2B2B2;}
	 	.st2{fill:#7C4CAB;}
</style>
<title>GoBizlogo_web_200x50px</title>
<linearGradient id="SVGID_1_" gradientUnits="userSpaceOnUse" x1="33.7807" y1="522.809" x2="51.7132" y2="553.8726" gradientTransform="matrix(1 0 0 1 0 -515.9291)">
	<stop  offset="0" style="stop-color:#02A6CC"/>
	<stop  offset="1" style="stop-color:#11C2B7"/>
</linearGradient>
<path fill="url(#SVGID_1_)" d="M39.9,25.3c0-4,3.3-7.3,7.3-7.3s7.3,3.3,7.3,7.3s-3.3,7.3-7.3,7.3l0,0C43.2,32.6,39.9,29.3,39.9,25.3
	L39.9,25.3 M46.9,1.8c-8.3,0-12.9,5-12.9,12.5v24.2h5.3V36c2.2,1.7,4.9,2.5,7.7,2.5h0.1h0.1c7.3,0,13.2-5.9,13.2-13.2
	s-5.9-13.2-13.2-13.2c-2.9,0-5.7,0.9-8,2.7V14c0-4.6,2.6-7.6,7.7-7.6L46.9,1.8L46.9,1.8z"/>
<path fill="#B2B2B2" d="M22.1,25.3c0,4-3.3,7.3-7.3,7.3s-7.3-3.3-7.3-7.3s3.3-7.3,7.3-7.3l0,0C18.9,18,22.1,21.3,22.1,25.3
	 M28.1,36.3V12.1h-5.3v2.5c-2.2-1.7-4.9-2.5-7.7-2.5H15h-0.1C7.6,12.1,1.6,18,1.6,25.3s5.9,13.2,13.2,13.2c2.9,0,5.7-0.9,8-2.7v0.8
	c0,4.6-2.6,7.6-7.7,7.6v4.6h0.1C23.4,48.8,28.1,43.8,28.1,36.3"/>
<path fill="#B2B2B2" d="M82,22.1c0,1.8-1.5,3.3-3.3,3.3s-3.3-1.5-3.3-3.3s1.5-3.3,3.3-3.3S82,20.3,82,22.1 M85,27.8V16.3h-3.3v1.6
	c-0.9-1.2-2.3-1.9-3.8-1.8c-3.2,0-5.8,2.5-5.8,6.1s2.6,6.1,5.8,6.1c1.5,0.1,2.9-0.6,3.8-1.8V28c0,2.2-1.2,3.4-3.4,3.4
	c-1.6,0-3.1-0.8-3.9-2.1l-2.1,1.9c1.8,2.2,4,2.8,6,2.8C82.6,34.1,85,31.8,85,27.8"/>
<path fill="#B2B2B2" d="M97.4,22.3c0,1.9-1.5,3.5-3.4,3.5h-0.1c-1.9,0-3.5-1.6-3.5-3.5s1.6-3.5,3.5-3.5s3.5,1.5,3.5,3.4
	C97.4,22.3,97.4,22.3,97.4,22.3 M100.6,22.3c0-3.6-2.9-6.3-6.6-6.3s-6.6,2.6-6.6,6.3s2.9,6.3,6.6,6.3S100.6,26,100.6,22.3"/>
<path fill="#05BACC" d="M112.7,22.3c0,1.9-1.6,3.5-3.5,3.5s-3.5-1.6-3.5-3.5s1.6-3.5,3.5-3.5S112.7,20.4,112.7,22.3 M116,22.3
	c0-3.6-2.7-6.3-5.9-6.3c-1.5-0.1-3,0.6-4,1.8v-7h-3.3v17.6h3.3v-1.6c1,1.2,2.5,1.9,4,1.8C113.3,28.7,116,26,116,22.3"/>
<path fill="#05BACC" d="M123.6,28.6c3.5,0,5.6-1.8,5.6-4.7v-7.6H126v7.4c0,1.5-1,2.1-2.3,2.1s-2.3-0.7-2.3-2.1v-7.4H118v7.6
	C118,26.9,120.1,28.6,123.6,28.6"/>
<path fill="#05BACC" d="M136.1,28.6c2.7,0,4.7-1.3,4.7-3.9c0-2.5-1.8-3.2-3.5-3.8c-1.4-0.4-2.6-0.7-2.6-1.5c0-0.7,0.6-1,1.4-1
	c1.1,0.1,2.1,0.4,3,1l1.4-2.1c-1.3-0.8-2.8-1.3-4.3-1.3c-2.4,0-4.6,1.2-4.6,3.7c0,2.4,2,3.1,3.6,3.6c1.3,0.4,2.4,0.7,2.4,1.6
	c0,0.7-0.6,1.1-1.6,1.1c-1.2,0-2.7-0.7-3.7-1.4l-1.4,2.3C132.5,28.1,134.3,28.6,136.1,28.6"/>
<path fill="#05BACC" d="M146.3,16.3h-3.2v12.1h3.2V16.3z M146.6,12.5c0-1-0.8-1.9-1.9-1.9c-1,0-1.9,0.8-1.9,1.9c0,1,0.8,1.9,1.9,1.9
	C145.7,14.4,146.6,13.5,146.6,12.5L146.6,12.5"/>
<path fill="#05BACC" d="M156.4,16.1c-1.5,0-2.8,0.7-3.7,1.9v-1.7h-3.3v12.1h3.3v-6.9c0-1.8,1-2.7,2.4-2.7c1.3,0,2.2,0.6,2.2,2.5v7.1
	h3.3v-7.7C160.6,17.7,159,16.1,156.4,16.1"/>
<path fill="#05BACC" d="M172,20.9h-6c0.3-1.5,1.6-2.5,3.1-2.4C170.6,18.5,171.8,19.4,172,20.9 M175.3,22.2c-0.1-3.7-2.7-6.2-6.2-6.2
	c-3.7,0-6.4,2.8-6.4,6.3s2.6,6.3,6.5,6.3c2.6,0,4.6-1.2,5.6-3.2l-2.6-1.1c-0.6,1.1-1.8,1.7-3,1.7c-1.8,0-3.2-1.2-3.3-3.2h9.4V22.2z"
	/>
<path fill="#05BACC" d="M181.4,28.6c2.7,0,4.7-1.3,4.7-3.9c0-2.5-1.8-3.2-3.5-3.8c-1.4-0.4-2.6-0.7-2.6-1.5c0-0.7,0.6-1,1.4-1
	c1.1,0.1,2.1,0.4,3,1l1.4-2.1c-1.3-0.8-2.8-1.3-4.3-1.3c-2.4,0-4.6,1.2-4.6,3.7c0,2.4,2,3.1,3.6,3.6c1.3,0.4,2.4,0.7,2.4,1.6
	c0,0.7-0.6,1.1-1.6,1.1c-1.2,0-2.7-0.7-3.7-1.4l-1.4,2.3C177.8,28.1,179.6,28.6,181.4,28.6"/>
<path fill="#05BACC" d="M192.3,28.6c2.7,0,4.7-1.3,4.7-3.9c0-2.5-1.8-3.2-3.5-3.8c-1.4-0.4-2.6-0.7-2.6-1.5c0-0.7,0.6-1,1.4-1
	c1.1,0.1,2.1,0.4,3,1l1.4-2.1c-1.3-0.8-2.8-1.3-4.3-1.3c-2.4,0-4.6,1.2-4.6,3.7c0,2.4,2,3.1,3.6,3.6c1.3,0.4,2.4,0.7,2.4,1.6
	c0,0.7-0.6,1.1-1.6,1.1c-1.2,0-2.7-0.7-3.7-1.4l-1.4,2.4C188.7,28.1,190.5,28.6,192.3,28.6"/>
<g>
	<g>
		<g>
			<g>
				<g>
					<path fill="#B9B9B9" d="M115.2,41.5l0.8-0.9c0.5,0.7,1.3,1.2,2.3,1.2c0.8,0,1.5-0.5,1.5-1.2c0-0.9-0.8-1.2-1.9-1.7
						c-1.2-0.5-2.4-1.1-2.4-2.5c0-1.5,1.2-2.4,2.5-2.4c1.1,0,2,0.5,2.7,1.2l-0.8,0.9c-0.7-0.7-1.3-0.9-2-0.9c-0.7,0-1.2,0.4-1.2,1.1
						c0,0.8,0.8,1.2,1.9,1.6c1.2,0.5,2.4,1.1,2.4,2.7s-1.3,2.5-2.8,2.5C117,42.9,115.8,42.3,115.2,41.5z"/>
					<path fill="#B9B9B9" d="M124,34.1h1.3v8.8H124V34.1z"/>
					<path fill="#B9B9B9" d="M136.9,34.1v8.8h-1.2l-5.4-6.6v6.6H129v-8.8h1.2l5.4,6.6v-6.6H136.9z"/>
					<path fill="#B9B9B9" d="M149.1,38.5c0,2.5-2,4.5-4.5,4.5c-2.5,0-4.5-2-4.5-4.5c0-2.5,2-4.5,4.5-4.5c1.6,0,3.1,0.8,3.8,2
						l-1.2,0.7c-0.5-0.8-1.6-1.3-2.7-1.3c-1.7,0-3.2,1.5-3.2,3.2c0,1.7,1.3,3.2,3.2,3.2c1.6,0,2.8-0.9,3.1-2.4h-2.4v-1.2h3.7
						C149.1,38.2,149.1,38.4,149.1,38.5z"/>
					<path fill="#B9B9B9" d="M156.9,40.9h-4.1l-0.7,1.9h-1.5l3.4-8.8h1.5l3.4,8.8h-1.3L156.9,40.9z M156.6,39.7l-1.6-4.2l-1.7,4.2
						H156.6z"/>
					<path fill="#B9B9B9" d="M168,36.8c0,1.6-1.1,2.7-2.8,2.7H163v3.3h-1.3V34h3.6C167,34.1,168,35.3,168,36.8z M166.8,36.8
						c0-0.9-0.7-1.6-1.6-1.6h-2v3.2h2C166.2,38.4,166.8,37.7,166.8,36.8z"/>
					<path fill="#B9B9B9" d="M170.5,38.5c0-2.5,2-4.5,4.5-4.5c2.5,0,4.5,2,4.5,4.5c0,2.5-2,4.5-4.5,4.5
						C172.5,42.9,170.5,41,170.5,38.5z M178.3,38.5c0-1.9-1.5-3.2-3.2-3.2c-1.7,0-3.2,1.5-3.2,3.2c0,1.9,1.5,3.2,3.2,3.2
						C176.8,41.7,178.3,40.2,178.3,38.5z"/>
					<path fill="#B9B9B9" d="M185.7,39h-1.7v3.8h-1.3v-8.8h3.3c1.6,0,2.7,1.2,2.7,2.5c0,1.1-0.7,2-1.6,2.3l2.3,4h-1.5L185.7,39z
						 M183.9,37.8h1.9c0.8,0,1.5-0.5,1.5-1.3c0-0.8-0.5-1.3-1.5-1.3h-1.9V37.8z"/>
					<path fill="#B9B9B9" d="M193.3,35.3v2.5h3.2V39h-3.2v2.5h3.7v1.2h-5V34h5v1.2h-3.7V35.3z"/>
				</g>
			</g>
		</g>
	</g>
</g>
</svg>
