<svg width="16" height="16" viewBox="0 0 16 16" fill="none" xmlns="http://www.w3.org/2000/svg">
<path fill-rule="evenodd" clip-rule="evenodd" d="M5.33333 2H10.6667V2.66667V3.33333H14V4V8V8.66667H13.3333H10V9.33333V10H6V9.33333V8.66667H2.66667H2V8V4V3.33333H5.33333V2.66667V2ZM9.33333 8.66667V8V7.33333H6.66667V8V8.66667V9.33333H9.33333V8.66667ZM10 8H13.3333V4H10.6667H10H6H5.33333H2.66667V8H6V7.33333V6.66667H10V7.33333V8ZM10 2.66667V3.33333H6V2.66667H10ZM2.66667 9.33333H3.33333V13.3333H12.6667V9.33333H13.3333V13.3333V14H12.6667H3.33333H2.66667V13.3333V9.33333Z" fill="#4A5561"/>
</svg>
