<svg width="16" height="16" viewBox="0 0 16 16" fill="none" xmlns="http://www.w3.org/2000/svg">
<path fill-rule="evenodd" clip-rule="evenodd" d="M4.34131 4.79933C4.33865 4.79846 4.33599 4.79758 4.33333 4.7967C4.46009 2.86175 6.04962 1.33203 7.99185 1.33203C7.99321 1.33203 7.99457 1.33203 7.99593 1.33203C7.99728 1.33203 7.99864 1.33203 8 1.33203C10.025 1.33203 11.6667 2.99497 11.6667 5.04632C11.6667 6.88723 11.086 8.29018 10.1894 9.12494L13.4063 11.2695C13.7772 11.5168 14 11.9331 14 12.3789V14.6654H2V12.3789C2 11.9331 2.2228 11.5168 2.59373 11.2695L5.81064 9.12494C4.91397 8.29018 4.33333 6.88723 4.33333 5.04632C4.33333 4.96332 4.33602 4.88097 4.34131 4.79933ZM5.00131 4.95541C5.00044 4.9856 5 5.01591 5 5.04632C5 7.68031 6.28754 9.33203 8 9.33203C9.71246 9.33203 11 7.68031 11 5.04632C11 5.00158 10.9991 4.95707 10.9972 4.91281C10.0302 4.8181 9.16427 4.37909 8.52352 3.71999C7.79307 4.50655 6.74994 4.9987 5.59185 4.9987C5.39121 4.9987 5.19402 4.98393 5.00131 4.95541ZM7.05828 13.9987H8.87505L8.31949 12.332H7.61384L7.05828 13.9987ZM9.57778 13.9987H13.3333V12.3789C13.3333 12.156 13.2219 11.9479 13.0365 11.8242L9.62578 9.55045C9.13584 9.84434 8.58387 9.9987 8 9.9987C7.41613 9.9987 6.86416 9.84434 6.37422 9.55045L2.96353 11.8242C2.77807 11.9479 2.66667 12.156 2.66667 12.3789V13.9987H6.35556L7.13333 11.6654H8.8L9.57778 13.9987ZM7.99185 1.9987C6.5978 1.9987 5.41451 2.9689 5.08381 4.29366C5.25057 4.31911 5.42024 4.33203 5.59185 4.33203C6.53185 4.33203 7.40772 3.94182 8.03502 3.26633L8.51247 2.75221L9.00154 3.25529C9.50782 3.77608 10.1648 4.11664 10.8823 4.22665C10.5294 2.93858 9.36507 1.9987 7.99185 1.9987Z" fill="#4A5561"/>
</svg>
